<?xml version="1.0" standalone="no"?><!DOCTYPE svg PUBLIC "-//W3C//DTD SVG 1.1//EN" "http://www.w3.org/Graphics/SVG/1.1/DTD/svg11.dtd"><svg t="1491984330255" class="icon" style="" viewBox="0 0 1024 1024" version="1.1" xmlns="http://www.w3.org/2000/svg" p-id="995" xmlns:xlink="http://www.w3.org/1999/xlink" width="32" height="32"><defs><style type="text/css"></style></defs><path d="M481.199161 478.180474c8.083941 7.981613 18.82842 11.256121 29.368242 10.437494 10.539822 0.818627 21.284301-2.353553 29.265914-10.437494l331.543919-332.055561c14.632957-14.632957 14.632957-38.373139 0-53.108424-14.632957-14.632957-38.373139-14.632957-53.006096 0L510.567403 401.331868 202.661337 93.016488c-14.632957-14.632957-38.373139-14.632957-52.903767 0-14.632957 14.632957-14.632957 38.373139 0 53.108424L481.199161 478.180474zM946.281603 468.254622c-14.632957-14.632957-38.373139-14.632957-53.006096 0l-382.708104 383.322075L127.75697 468.254622c-14.632957-14.632957-38.373139-14.632957-53.006096 0-14.632957 14.632957-14.632957 38.373139 0 53.108424L481.199161 928.425302c8.083941 7.981613 18.82842 11.256121 29.368242 10.437494 10.539822 0.818627 21.284301-2.353553 29.265914-10.437494l406.448286-407.062256C960.91456 506.627761 960.91456 482.887579 946.281603 468.254622z" p-id="996"></path></svg>